<?xml version="1.0" encoding="utf-8"?>
<!-- Generator: Adobe Illustrator 19.1.0, SVG Export Plug-In . SVG Version: 6.00 Build 0)  -->
<svg version="1.1" id="Layer_1" xmlns="http://www.w3.org/2000/svg" xmlns:xlink="http://www.w3.org/1999/xlink" x="0px" y="0px"
	 viewBox="-6.5 2.5 83 65" style="enable-background:new -6.5 2.5 83 65;" xml:space="preserve">
<style type="text/css">
	.st0{fill:#FFFFFF;}
</style>
<g>
	<path class="st0" d="M21.5,26l10.1-6.3c0.4-0.3,1-0.2,1.4,0.2l3.6,3.6l5.2-3.4c0.4-0.3,1-0.2,1.4,0.1l5.5,5.3V7.2H21.5V26z
		 M38.2,12.9c1,0,1.8,0.8,1.8,1.8s-0.8,1.8-1.8,1.8c-1,0-1.8-0.8-1.8-1.8S37.2,12.9,38.2,12.9z"/>
	<path class="st0" d="M31.1,50.6c-0.7,0-1.5,0.6-2.5,1.9c0.6,0,1.2-0.1,1.9-0.2c0.9-0.2,1.4-0.5,1.4-1c0-0.2-0.1-0.4-0.2-0.5
		S31.3,50.6,31.1,50.6z"/>
	<polygon class="st0" points="24.1,34.2 48.6,34.2 48.6,28.4 42.2,22.3 	"/>
	<polygon class="st0" points="32,22 21.5,28.6 21.5,33.2 34.6,24.7 	"/>
	<path class="st0" d="M-10.7-0.7v72H83v-72H-10.7z M8.6,54.3c-0.6,0-1-0.2-1.3-0.6c-0.4,1-0.9,1.8-1.7,2.5c-0.6,0.6-1.5,1.1-2.6,1.5
		c-0.2,0.1-0.3,0.1-0.5,0.1c-0.2,0-0.4-0.1-0.5-0.2c-0.1-0.1-0.2-0.3-0.2-0.5c0-0.4,0.2-0.7,0.7-0.9c0.9-0.4,1.6-0.8,2.1-1.2
		c0.7-0.6,1.2-1.2,1.4-1.9c0-0.1,0-0.2,0-0.3c0-0.4-0.1-0.9-0.3-1.3c0-0.1,0-0.2,0-0.3c0-0.2,0.1-0.4,0.2-0.6
		c0.1-0.2,0.3-0.2,0.5-0.3c0.3,0,0.6,0.2,0.8,0.6c0,0,0.2,0.3,0.4,0.9c0.3,0.4,0.7,0.5,1.2,0.5h0.2h0.3c0.8,0,1.2-0.3,1.2-0.8
		c0-0.2,0-0.4-0.1-0.7c-0.1-0.3-0.1-0.5-0.1-0.7c0-0.2,0.1-0.4,0.2-0.6c0.1-0.2,0.3-0.2,0.5-0.2c0.7,0,1,0.6,1,1.9
		c0,0.9-0.2,1.6-0.7,2.1c-0.5,0.5-1.2,0.8-2,0.8H9.1H8.6L8.6,54.3z M10.6,57.4c-0.2,0.2-0.4,0.3-0.6,0.3s-0.5-0.1-0.6-0.3
		C9.1,57.2,9,57,9,56.7s0.1-0.5,0.3-0.6c0.2-0.2,0.4-0.3,0.6-0.3c0.2,0,0.5,0.1,0.6,0.3c0.2,0.2,0.3,0.4,0.3,0.6
		C10.8,57,10.7,57.2,10.6,57.4z M12.7,57.4c-0.2,0.2-0.4,0.3-0.6,0.3s-0.5-0.1-0.6-0.3s-0.3-0.4-0.3-0.6c0-0.2,0.1-0.5,0.3-0.6
		c0.2-0.2,0.4-0.3,0.6-0.3c0.3,0,0.5,0.1,0.6,0.3c0.2,0.2,0.3,0.4,0.3,0.6S12.9,57.2,12.7,57.4z M18,55.4c-0.8,0.9-1.8,1.6-3,2
		c-0.1,0.1-0.3,0.1-0.4,0.1c-0.2,0-0.4-0.1-0.6-0.2c-0.2-0.1-0.2-0.3-0.2-0.5c0-0.3,0.2-0.6,0.6-0.7c0.7-0.3,1.3-0.7,1.9-1.2
		c0.7-0.6,1.2-1.2,1.4-1.7c-0.2,0.1-0.5,0.2-0.9,0.2c-0.6,0-1-0.2-1.4-0.5c-0.3-0.3-0.5-0.8-0.5-1.4c0-0.6,0.2-1.1,0.5-1.7
		C16,49.2,16.4,49,17,49c0.8,0,1.4,0.4,1.8,1.1c0.4,0.6,0.5,1.3,0.5,2.1C19.3,53.3,18.9,54.4,18,55.4z M20.1,36.4
		C20.1,36.4,20,36.4,20.1,36.4c-0.1-0.1-0.1-0.1-0.1-0.1c0,0-0.1,0-0.1-0.1c0,0,0,0,0,0l0,0c0,0-0.1,0-0.1-0.1c0,0,0,0,0,0
		c0,0,0,0-0.1-0.1l0,0c0-0.1-0.1-0.1-0.1-0.1l0,0c0,0,0,0,0-0.1s0,0,0-0.1c0-0.1-0.1-0.1-0.1-0.2c0,0,0,0,0,0c0,0,0,0,0-0.1
		c0-0.1,0-0.2,0-0.3V28V6.1c0-0.6,0.5-1.1,1.1-1.1h29.2c0.6,0,1.1,0.5,1.1,1.1V28v7.3c0,0.6-0.5,1.1-1.1,1.1H20.3
		C20.2,36.4,20.1,36.4,20.1,36.4z M35.9,47.6c0,0.3-0.1,0.5-0.3,0.6s-0.4,0.3-0.6,0.3s-0.5-0.1-0.6-0.3s-0.3-0.4-0.3-0.6
		s0.1-0.5,0.3-0.6s0.4-0.3,0.6-0.3s0.5,0.1,0.6,0.3S35.9,47.4,35.9,47.6z M36.5,53.5c-0.5,0.5-1.2,0.8-2,0.8h-0.2h-0.4h0
		c-0.8,0-1.5-0.2-1.9-0.7c-0.9,0.5-2.2,0.8-3.9,0.8c-0.7,0-1.2,0-1.5-0.1c-0.6-0.1-0.9-0.4-1.1-0.8c-0.4,0.6-0.9,0.9-1.6,0.9h0h-0.5
		h-0.1c-1,0-1.7-0.4-2.1-1.1c-0.2-0.4-0.3-1.3-0.4-2.5l-0.2-5c0-0.3,0-0.5,0.2-0.7c0.1-0.2,0.3-0.3,0.6-0.3c0.5,0,0.8,0.3,0.8,1V51
		c0,1,0.4,1.5,1.2,1.5h0.2c0.7,0,1.1-0.4,1.3-1.2c0.1-0.4,0.3-0.6,0.6-0.6c0.3,0,0.5,0.2,0.6,0.6c0.1,0.8,0.4,1.2,0.8,1.2
		c0.2,0,0.5-0.3,0.8-0.8c1.2-1.8,2.3-2.8,3.5-2.8c0.6,0,1.1,0.2,1.5,0.6c0.4,0.4,0.6,0.9,0.6,1.5c0,0.4-0.1,0.9-0.4,1.4
		c0.2,0.1,0.5,0.1,0.9,0.1h0.3h0.3c0.8,0,1.2-0.3,1.2-0.8c0-0.2,0-0.4-0.1-0.7s-0.1-0.5-0.1-0.7c0-0.2,0.1-0.4,0.2-0.6
		c0.1-0.2,0.3-0.2,0.5-0.2c0.7,0,1,0.6,1,1.9C37.2,52.3,37,53,36.5,53.5z M37.8,48.3c-0.2,0.2-0.4,0.3-0.6,0.3s-0.5-0.1-0.6-0.3
		s-0.3-0.4-0.3-0.6s0.1-0.5,0.3-0.6s0.4-0.3,0.6-0.3c0.2,0,0.5,0.1,0.6,0.3s0.3,0.4,0.3,0.6C38.1,47.9,38,48.1,37.8,48.3z
		 M47.8,53.4c-0.4,0.3-1,0.5-1.8,0.5c-0.1,0-0.3,0-0.6,0s-0.5,0-0.6,0c-0.3,0-0.4,0.1-0.5,0.3c0,0.1-0.1,0.3-0.1,0.6l0.1,4.4
		c0,0.2,0,0.4-0.2,0.5c-0.1,0.2-0.3,0.2-0.5,0.2c-0.4,0-0.6-0.2-0.6-0.7l-0.2-5c-0.1-1.3,0.4-2,1.4-2.2c0-0.2-0.1-0.4-0.1-0.5
		c0-0.6,0.2-1.1,0.6-1.6c0.4-0.4,0.8-0.6,1.3-0.6c0.7,0,1.3,0.2,1.8,0.7c0.4,0.4,0.6,1,0.6,1.6C48.5,52.5,48.3,53,47.8,53.4z
		 M58.3,57.5c-0.2,0.2-0.4,0.3-0.6,0.3s-0.5-0.1-0.6-0.3s-0.3-0.4-0.3-0.6s0.1-0.5,0.3-0.6s0.4-0.3,0.6-0.3s0.5,0.1,0.6,0.3
		s0.3,0.4,0.3,0.6S58.5,57.3,58.3,57.5z M63.1,51c0,1-0.1,1.8-0.3,2.2c-0.3,0.7-1,1.1-1.9,1.1h-0.5h-0.4h-0.1c-1,0-1.7-0.3-1.9-1
		c-0.4,0.6-1,1-1.9,1h-0.1h-0.5h-0.8c-0.5,1.8-1.9,3.1-4.1,4c-0.1,0.1-0.3,0.1-0.4,0.1c-0.2,0-0.4-0.1-0.5-0.2s-0.2-0.3-0.2-0.5
		c0-0.4,0.2-0.6,0.6-0.8c1.6-0.7,2.7-1.6,3.1-2.5c-0.8,0-1.5-0.1-1.8-0.3c-0.5-0.3-0.8-0.8-0.8-1.5c0-0.6,0.2-1.2,0.5-1.7
		c0.4-0.6,0.9-0.9,1.4-0.9c0.6,0,1.2,0.3,1.6,0.8c0.4,0.5,0.6,1.1,0.7,1.8h0.7h0.5H56c0.8,0,1.2-0.3,1.3-1c0.1-0.5,0.3-0.7,0.7-0.7
		s0.6,0.2,0.6,0.7c0.1,0.7,0.5,1,1.2,1h0.1h0.4h0.1c0.5,0,0.8-0.1,1-0.3c0.1-0.2,0.2-0.5,0.2-1l-0.1-5.5c0-0.3,0.1-0.5,0.2-0.7
		c0.2-0.2,0.4-0.3,0.6-0.3c0.5,0,0.8,0.3,0.8,1V51z M68,53.7c0,0.6-0.2,0.9-0.7,0.9c-0.4,0-0.7-0.3-0.7-0.8L66.4,46
		c0-0.3,0-0.6,0.2-0.9c0.2-0.3,0.4-0.5,0.7-0.5c0.5,0,0.8,0.4,0.8,1.2V53.7z M69.1,43.4c-0.4,0.3-0.8,0.4-1.3,0.4c-0.2,0-0.5,0-1,0
		s-0.8,0-1,0c-0.4,0-0.7,0.1-0.9,0.2c-0.1,0.1-0.2,0.2-0.3,0.4c-0.1,0.2-0.2,0.2-0.4,0.2c-0.2,0-0.3-0.1-0.3-0.3
		c0-0.5,0.2-0.9,0.5-1.2s0.7-0.5,1.2-0.5c0.2,0,0.6,0,1,0.1s0.8,0.1,1,0.1c0.3,0,0.7-0.1,1-0.4s0.6-0.4,0.6-0.4
		c0.2,0,0.3,0.1,0.3,0.3C69.7,42.7,69.5,43.1,69.1,43.4z"/>
	<path class="st0" d="M16.9,50.7c-0.2,0-0.3,0.1-0.4,0.2c-0.1,0.1-0.2,0.3-0.2,0.4c0,0.3,0.2,0.5,0.7,0.5c0.3,0,0.6,0,0.8-0.1
		c0-0.3-0.1-0.5-0.2-0.7C17.4,50.8,17.2,50.7,16.9,50.7z"/>
	<path class="st0" d="M46.2,51c-0.2,0-0.4,0-0.5,0.2s-0.2,0.3-0.2,0.5c0,0.4,0.3,0.6,1,0.6c0.5,0,0.7-0.2,0.8-0.5
		C47.2,51.3,46.9,51,46.2,51z"/>
	<path class="st0" d="M52.3,51.5c-0.2,0-0.3,0.1-0.4,0.2s-0.2,0.2-0.2,0.4c0,0.3,0.2,0.4,0.6,0.5c0.1,0,0.4,0,0.9,0
		c0-0.3-0.1-0.5-0.2-0.7C52.8,51.6,52.6,51.5,52.3,51.5z"/>
</g>
</svg>
