<?xml version="1.0" encoding="utf-8"?>
<!-- Generator: Adobe Illustrator 19.1.0, SVG Export Plug-In . SVG Version: 6.00 Build 0)  -->
<svg version="1.1" id="Layer_1" xmlns="http://www.w3.org/2000/svg" xmlns:xlink="http://www.w3.org/1999/xlink" x="0px" y="0px"
	 viewBox="0 0 70 70" style="enable-background:new 0 0 70 70;" xml:space="preserve">
<style type="text/css">
	.st0{fill:#FFFFFF;}
</style>
<path class="st0" d="M-2-0.7v73.3h73.5V-0.7H-2z M37.3,48.5c-3.7,0-7.1-1.5-9.5-4l2.1-2.1c1.9,1.9,4.5,3.1,7.4,3.1
	c5.8,0,10.5-4.7,10.5-10.5s-4.7-10.5-10.5-10.5S26.8,29.2,26.8,35h4.5l-6.1,6l-0.1-0.2L19.3,35h4.5c0-7.5,6-13.5,13.5-13.5
	s13.5,6,13.5,13.5C50.8,42.5,44.7,48.5,37.3,48.5z M43.3,38.5l-1.1,1.8l-6.4-3.8V29H38v6.4L43.3,38.5z"/>
</svg>
