<?xml version="1.0" encoding="utf-8"?>
<!-- Generator: Adobe Illustrator 19.1.0, SVG Export Plug-In . SVG Version: 6.00 Build 0)  -->
<svg version="1.1" id="Layer_1" xmlns="http://www.w3.org/2000/svg" xmlns:xlink="http://www.w3.org/1999/xlink" x="0px" y="0px"
	 viewBox="0 0 83 64.9" style="enable-background:new 0 0 83 64.9;" xml:space="preserve">
<style type="text/css">
	.st0{fill:#CCCCCC;}
	.st1{fill:#E0E0E0;stroke:#E0E0E0;stroke-miterlimit:10;}
	.st2{fill:#FFFFFF;}
	.st3{fill:none;stroke:#BDBDBD;stroke-width:3;stroke-miterlimit:10;}
	.st4{fill:none;stroke:#D1222B;stroke-width:3;stroke-miterlimit:10;}
	.st5{clip-path:url(#SVGID_2_);fill:#FFFFFF;}
	.st6{fill:#D1222B;}
	.st7{fill:none;stroke:#D1222B;stroke-miterlimit:10;}
	.st8{fill:none;stroke:#BDBDBD;stroke-miterlimit:10;}
	.st9{fill:#FAFAFA;}
	.st10{fill:#FFFFFF;stroke:#757575;stroke-miterlimit:10;}
	.st11{fill:#757575;}
	.st12{fill:#FFFFFF;stroke:#D1222B;stroke-miterlimit:10;}
	.st13{fill:#FFFFFF;stroke:#D1222B;stroke-width:2;stroke-miterlimit:10;}
	.st14{fill:#FFFFFF;stroke:#BDBDBD;stroke-miterlimit:10;}
	.st15{fill:#231F20;}
	.st16{fill:none;}
	.st17{stroke:#000000;stroke-miterlimit:10;}
	.st18{opacity:0.6;fill:#767676;}
	.st19{fill:#D0222B;}
	.st20{fill:#221F1F;}
	.st21{opacity:0.5;fill:#D1222B;}
	.st22{fill:#D1222B;stroke:#D1212B;stroke-miterlimit:10;}
</style>
<g>
	<path class="st2" d="M41.5,16.7c2.9,0,5.2-2.3,5.2-5.2c0-2.9-2.3-5.2-5.2-5.2s-5.2,2.3-5.2,5.2C36.2,14.4,38.6,16.7,41.5,16.7z"/>
	<path class="st2" d="M41.5,20C38,20,31.1,21.9,31,25.4c2.2,3.4,6.1,5.6,10.5,5.6s8.2-2.2,10.5-5.6C51.9,21.9,44.9,20,41.5,20z"/>
	<path class="st2" d="M-2.7-2.6v70h88v-70H-2.7z M13,55.5c-0.2,0.1-0.4,0.2-0.9,0.2c-0.6,0.1-1.1,0.2-1.5,0.5
		c-0.6,0.3-0.9,0.7-0.9,1.2c0,0.2,0.2,0.3,0.6,0.4l1.1,0.2c0.4,0.1,0.8,0.3,0.9,0.5c0.2,0.2,0.3,0.5,0.3,1c0,1-0.6,1.9-1.7,2.6
		c-1.1,0.7-2.3,1.1-3.6,1.1c-1.2,0-2.1-0.3-2.8-0.9c-0.7-0.6-1-1.5-1-2.7c0-0.6,0.1-1.2,0.3-1.7c0.2-0.8,0.6-1.1,1-1.1
		c0.4,0,0.6,0.2,0.6,0.7c0,0.2-0.1,0.5-0.2,0.9s-0.2,0.7-0.2,0.9c0,1.4,0.8,2.1,2.4,2.1c1,0,1.9-0.2,2.7-0.5
		c0.6-0.3,0.9-0.6,0.9-0.9c0-0.2-0.3-0.3-0.8-0.4c-0.7-0.1-1.2-0.2-1.4-0.4c-0.5-0.3-0.8-0.8-0.8-1.4c0-1,0.5-1.8,1.4-2.6
		c0.9-0.7,1.8-1.1,2.8-1.1c0.6,0,1,0.3,1,0.8C13.4,55.1,13.3,55.3,13,55.5z M23.4,62.9c-0.2,0.2-0.4,0.3-0.6,0.3
		c-0.2,0-0.5-0.1-0.6-0.3c-0.2-0.2-0.3-0.4-0.3-0.6c0-0.2,0.1-0.5,0.3-0.6c0.2-0.2,0.4-0.3,0.6-0.3c0.2,0,0.5,0.1,0.6,0.3
		c0.2,0.2,0.3,0.4,0.3,0.6C23.7,62.5,23.6,62.7,23.4,62.9z M23.7,58.8c-0.5,0.5-1.2,0.6-2,0.6h-0.2H21h-0.1c-0.6,0-1,0-1.3-0.4
		c-0.4,1-0.9,1.9-1.7,2.6c-0.6,0.6-1.5,1.1-2.6,1.6c-0.2,0.1-0.3,0.1-0.5,0.1c-0.2,0-0.4-0.1-0.5-0.2c-0.1-0.1-0.2-0.3-0.2-0.5
		c0-0.4,0.2-0.7,0.7-0.9c0.9-0.4,1.6-0.8,2.1-1.2c0.7-0.6,1.2-1.2,1.4-1.9c0-0.1,0-0.2,0-0.3c0-0.4-0.1-0.9-0.2-1.3
		c0-0.1,0-0.2,0-0.3c0-0.2,0.1-0.4,0.2-0.6c0.1-0.2,0.3-0.2,0.5-0.2c0.3,0,0.6,0.2,0.8,0.6c0,0,0.2,0.6,0.4,1.2
		c0.3,0.4,0.7,0.7,1.2,0.7h0.2h0.3c0.8,0,1.2-0.5,1.2-1c0-0.2,0-0.5-0.1-0.8s-0.1-0.6-0.1-0.7c0-0.2,0.1-0.4,0.2-0.6
		c0.1-0.2,0.3-0.2,0.5-0.2c0.7,0,1,0.5,1,1.8C24.4,57.7,24.2,58.3,23.7,58.8z M29.6,60.6c-0.8,0.9-1.9,1.6-3.3,2c-0.1,0-0.2,0-0.4,0
		c-0.5,0-0.8-0.2-0.8-0.7c0-0.4,0.2-0.7,0.7-0.9c1.2-0.5,2-1.1,2.5-1.5c0.5-0.5,0.8-1.3,0.8-2.2c0-0.1,0-0.3,0-0.5
		c0-0.2,0-0.4,0-0.5c0-0.9,0.3-1.3,0.8-1.3c0.6,0,0.9,0.4,0.9,1.3c0,0.2,0,0.4,0,0.6C30.8,58.4,30.4,59.6,29.6,60.6z M41.2,51.7
		c-1.5,0.3-2.8,0.8-4.1,1.3c-0.1,0.1-0.2,0.1-0.2,0.2s0.1,0.2,0.2,0.3c1.9,1.4,2.9,2.7,2.9,3.7c0,1-0.4,1.5-1.2,1.9
		c-0.7,0.3-1.8,0.3-3.3,0.3h-0.1h-0.4h-0.1c-1,0-1.7-0.2-2.1-0.9c-0.2-0.4-0.3-1.2-0.4-2.4l-0.2-4.9c0-0.3,0-0.5,0.2-0.7
		c0.1-0.2,0.1-0.3,0.4-0.3c0.5,0,0.6,0.4,0.6,1.1v5.2c0,1,0.8,1.9,1.7,1.9h0.3c1,0,1.6-0.2,1.8-0.2c0.9-0.1,1.4-0.4,1.4-0.8
		c0-0.3-0.4-0.8-1.3-1.6c-1-0.8-1.6-1.4-1.7-1.8c-0.1-0.2-0.1-0.4-0.1-0.7c0-0.6,0.2-1.1,0.7-1.4c1-0.6,2.6-1.2,4.7-1.7
		c0.1,0,0.3,0,0.4,0c0.6,0,0.9,0.3,0.9,0.8C41.9,51.4,41.7,51.6,41.2,51.7z M52.4,63.2c-0.2,0.2-0.4,0.3-0.6,0.3
		c-0.2,0-0.5-0.1-0.6-0.3s-0.3-0.4-0.3-0.6s0.1-0.5,0.3-0.6s0.4-0.3,0.6-0.3s0.5,0.1,0.6,0.3c0.2,0.2,0.3,0.4,0.3,0.6
		C52.7,62.8,52.6,63,52.4,63.2z M55.8,59.6c-1.1,0.4-2.8,0.6-5,0.6c-3.1,0-4.6-0.9-4.6-2.7c0-0.5,0.1-0.9,0.2-1.4
		c0.2-0.6,0.5-0.9,0.8-0.9c0.4,0,0.6,0.2,0.6,0.6c0,0.1,0,0.3-0.1,0.6c-0.1,0.3-0.1,0.4-0.1,0.6c0,0.4,0.2,0.8,0.5,1
		c0.5,0.3,1.4,0.5,2.8,0.5h1c0.9,0,1.8-0.1,2.5-0.2c1.3-0.2,2-0.5,2-1c0-0.2-0.1-0.5-0.2-0.9c-0.2-0.4-0.2-0.7-0.2-0.8
		c0-0.6,0.3-0.9,0.8-0.9c0.4,0,0.8,0.3,1,1c0.2,0.5,0.3,1,0.3,1.5C57.9,58.3,57.2,59.1,55.8,59.6z M41.5,35.9
		c-9.6,0-17.4-7.8-17.4-17.4C24,8.8,31.9,1,41.5,1c9.6,0,17.4,7.8,17.4,17.4C58.9,28.1,51.1,35.9,41.5,35.9z M79.9,57.4
		C79,57.6,78,58,77,58.6c-0.9,0.5-1.4,0.6-1.7,0.7c-0.7,0.2-1.5,0.2-2.5,0.2h-0.3h-0.4h0c-0.7,0-1.3-0.1-1.6-0.7
		c-0.3,0.6-0.8,1-1.6,1c-0.8,0-1.3-0.3-1.6-0.9c-0.3,0.6-0.8,1-1.5,1c-0.9,0-1.5-0.5-1.8-1.1c-0.3,0.6-0.8,0.7-1.6,0.7h0H62h-0.1
		c-1,0-1.7-0.2-2.1-0.9c-0.2-0.4-0.3-1.2-0.4-2.4l-0.2-4.9c0-0.3,0-0.5,0.2-0.7c0.1-0.2,0.6-0.3,0.8-0.3c0.5,0,1,0.4,1,1.1v5.2
		c0,1-0.1,1.9,0.8,1.9h0.2c0.6,0,1-0.5,1.1-1.2c0.1-0.5,0.3-0.8,0.7-0.8c0.4,0,0.6,0.2,0.6,0.7c0.1,0.6,0.4,0.9,1,0.9
		c0.6,0,0.9-0.3,1-0.9c0.1-0.5,0.3-0.8,0.7-0.8c0.4,0,0.6,0.2,0.6,0.7c0.1,0.6,0.4,1,0.9,1c0.6,0,0.9-0.3,1-1
		c0.1-0.5,0.3-0.7,0.6-0.7c0.4,0,0.6,0.5,0.7,1c0.1,0.6,0.5,1.2,1.1,1.2h0.3h0.7c0.8,0,1.4-0.3,1.9-0.5c0.1,0,0.9-0.5,2.3-1.1
		c-1.4-0.4-2.2-0.7-2.5-0.7c-0.1,0-0.3,0.1-0.6,0.2c-0.3,0.2-0.5,0.2-0.6,0.2c-0.4,0-0.6-0.2-0.6-0.7c0-0.4,0.2-0.7,0.6-1.1
		c0.4-0.3,0.8-0.5,1.1-0.5c0.5,0,1.2,0.2,2.1,0.5c1.1,0.4,2,0.6,2.8,0.7c0.5,0.1,0.8,0.4,0.8,0.9C80.6,57,80.3,57.3,79.9,57.4z"/>
</g>
</svg>
