<?xml version="1.0" encoding="utf-8"?>
<!-- Generator: Adobe Illustrator 19.1.0, SVG Export Plug-In . SVG Version: 6.00 Build 0)  -->
<svg version="1.1" id="Layer_1" xmlns="http://www.w3.org/2000/svg" xmlns:xlink="http://www.w3.org/1999/xlink" x="0px" y="0px"
	 viewBox="-6.5 2.5 83 65" style="enable-background:new -6.5 2.5 83 65;" xml:space="preserve">
<style type="text/css">
	.st0{fill:#FFFFFF;}
</style>
<g>
	<rect x="43.5" y="22.6" class="st0" width="4.8" height="4.8"/>
	<path class="st0" d="M30.3,52.2c-0.2,0-0.3,0.1-0.4,0.2c-0.1,0.1-0.2,0.3-0.2,0.4c0,0.3,0.2,0.5,0.7,0.5c0.3,0,0.6,0,0.8-0.1
		c0-0.3-0.1-0.5-0.2-0.7C30.7,52.3,30.5,52.2,30.3,52.2z"/>
	<rect x="43.5" y="14.5" class="st0" width="4.8" height="4.8"/>
	<rect x="43.5" y="30.6" class="st0" width="4.8" height="4.8"/>
	<path class="st0" d="M-11.3,1v68h92.5V1H-11.3z M47.2,48.6c-0.2-0.2-0.3-0.4-0.3-0.6s0.1-0.5,0.3-0.6s0.4-0.3,0.6-0.3
		s0.5,0.1,0.6,0.3s0.3,0.4,0.3,0.6s-0.1,0.5-0.3,0.6s-0.4,0.3-0.6,0.3S47.3,48.8,47.2,48.6z M47.6,49.9c0,0.3-0.1,0.5-0.3,0.6
		s-0.4,0.3-0.6,0.3s-0.5-0.1-0.6-0.3s-0.3-0.4-0.3-0.6s0.1-0.5,0.3-0.6s0.4-0.3,0.6-0.3c0.2,0,0.5,0.1,0.6,0.3S47.6,49.6,47.6,49.9z
		 M48.3,49.3c0.2-0.2,0.4-0.3,0.6-0.3c0.3,0,0.5,0.1,0.6,0.3s0.3,0.4,0.3,0.6s-0.1,0.5-0.3,0.6s-0.4,0.3-0.6,0.3s-0.5-0.1-0.6-0.3
		S48,50.1,48,49.9C48,49.6,48.1,49.4,48.3,49.3z M42.2,5.1h7.4v7.4h-7.4V5.1z M42.2,13.2h7.4v7.4h-7.4V13.2z M42.2,21.3h7.4v7.4
		h-7.4V21.3z M42.2,29.3h7.4v7.4h-7.4V29.3z M20.8,6.6h19.4V8H20.8V6.6z M40.3,9.2v1.5H26.3V9.2H40.3z M20.8,14.2h19.4v1.5H20.8
		V14.2z M40.3,16.8v1.4H26.3v-1.4H40.3z M20.4,22.5h19.4V24H20.4V22.5z M39.8,25.1v1.5H25.8v-1.5H39.8z M20.4,30.4h19.4v1.5H20.4
		V30.4z M0.4,47.6c0.2-0.2,0.4-0.3,0.6-0.3s0.5,0.1,0.6,0.3S2,48,2,48.3s-0.1,0.5-0.3,0.6s-0.4,0.3-0.6,0.3c-0.2,0-0.5-0.1-0.6-0.3
		s-0.3-0.4-0.3-0.6C0.2,48,0.3,47.8,0.4,47.6z M14.1,55c-0.4,0.5-0.9,0.8-1.6,0.8c-0.3,0-0.6-0.1-1-0.3c-0.3-0.2-0.6-0.4-0.7-0.7
		c-0.1,0.3-0.3,0.5-0.6,0.7s-0.6,0.3-0.9,0.3c-0.8,0-1.4-0.3-1.7-0.9c-0.3,0.6-0.8,0.9-1.6,0.9H5.6H4.2c-0.6,0-1.1-0.2-1.4-0.7
		c-0.3-0.4-0.4-0.9-0.4-1.6c-0.9,0.3-1.6,0.8-2.3,1.3c-0.9,0.7-1.3,1.5-1.3,2.2c0,1.1,0.4,1.8,1.1,2.3c0.6,0.3,1.4,0.5,2.6,0.5
		c0.4,0,1.2-0.1,2.3-0.3c0.1,0,0.1,0,0.2,0c0.2,0,0.4,0.1,0.6,0.2s0.2,0.3,0.2,0.6c0,0.4-0.2,0.7-0.7,0.9c-1,0.3-1.9,0.5-2.8,0.5
		c-3.4,0-5.1-1.4-5.1-4.2c0-1.1,0.4-2.1,1.3-3c0.7-0.7,1.6-1.3,2.6-1.7c-0.9-0.1-1.4-0.1-1.6-0.1c-0.3,0-0.5,0.1-0.9,0.3
		s-0.5,0.3-0.6,0.3c-0.5,0-0.7-0.2-0.7-0.7c0-0.3,0.2-0.7,0.5-1.1c0.4-0.5,0.9-0.7,1.4-0.7c0.4,0,1,0.1,1.9,0.2s1.5,0.2,1.9,0.2
		c0.3,0,0.6,0,0.9,0c0.3,0,0.6,0,0.8,0.2C4.9,51.5,5,51.7,5,52c0,0.6-0.4,0.9-1.1,1.1c-0.2,0-0.4,0.1-0.6,0.2
		C3.4,53.7,3.8,54,4.4,54h1.2h0.3c0.6,0,1-0.3,1.1-1c0.1-0.5,0.3-0.7,0.7-0.7c0.4,0,0.6,0.2,0.6,0.7c0.1,0.6,0.4,1,1,1
		c0.4,0,0.6-0.1,0.7-0.4c0-0.2,0.1-0.4,0.2-0.8c0.1-0.3,0.3-0.4,0.6-0.4c0.3,0,0.6,0.2,0.7,0.7c0.2,0.7,0.5,1.1,1.1,1.1
		c0.4,0,0.6-0.2,0.6-0.7c0-0.1,0-0.3-0.1-0.5S13,52.4,13,52.3c0-0.2,0.1-0.3,0.2-0.5c0.1-0.1,0.3-0.2,0.4-0.2c0.4,0,0.7,0.2,0.8,0.6
		c0.1,0.3,0.2,0.7,0.2,1.1C14.7,54,14.5,54.6,14.1,55z M18.6,55.8c-1,0-1.7-0.4-2.1-1.1c-0.2-0.4-0.3-1.3-0.4-2.5l-0.2-5
		c0-0.3,0-0.5,0.2-0.7c0.1-0.2,0.3-0.3,0.6-0.3c0.5,0,0.8,0.3,0.8,1v5.3c0,1,0.4,1.5,1.2,1.5h0.4h0.3c0.8,0,1.2-0.3,1.2-0.8
		c0-0.2,0-0.4-0.1-0.7s-0.1-0.5-0.1-0.7c0-0.2,0.1-0.4,0.2-0.6c0.1-0.2,0.3-0.2,0.5-0.2c0.7,0,1,0.6,1,1.9c0,0.9-0.2,1.6-0.7,2.1
		s-1.2,0.8-2,0.8h-0.2H18.6L18.6,55.8z M19.3,58.4C19.1,58.2,19,58,19,57.8s0.1-0.5,0.3-0.6s0.4-0.3,0.6-0.3s0.5,0.1,0.6,0.3
		s0.3,0.4,0.3,0.6s-0.1,0.5-0.3,0.6s-0.4,0.3-0.6,0.3S19.5,58.6,19.3,58.4z M21.6,60.3c-0.2,0.2-0.4,0.3-0.6,0.3s-0.5-0.1-0.6-0.3
		s-0.3-0.4-0.3-0.6c0-0.2,0.1-0.5,0.3-0.6s0.4-0.3,0.6-0.3c0.3,0,0.5,0.1,0.6,0.3s0.3,0.4,0.3,0.6S21.8,60.1,21.6,60.3z M22.7,58.4
		c-0.2,0.2-0.4,0.3-0.6,0.3s-0.5-0.1-0.6-0.3s-0.3-0.4-0.3-0.6s0.1-0.5,0.3-0.6s0.4-0.3,0.6-0.3s0.5,0.1,0.6,0.3s0.3,0.4,0.3,0.6
		S22.9,58.2,22.7,58.4z M25.8,33h13.9v1.5l-13.9,0V33z M31.4,56.9c-0.8,0.9-1.8,1.6-3,2C28.3,59,28.2,59,28,59
		c-0.2,0-0.4-0.1-0.6-0.2s-0.2-0.3-0.2-0.5c0-0.3,0.2-0.6,0.6-0.7c0.7-0.3,1.3-0.7,1.9-1.2c0.7-0.6,1.2-1.2,1.4-1.7
		c-0.2,0.1-0.5,0.2-0.9,0.2c-0.6,0-1-0.2-1.4-0.5s-0.5-0.8-0.5-1.4c0-0.6,0.2-1.1,0.5-1.7c0.4-0.6,0.9-0.9,1.4-0.9
		c0.8,0,1.4,0.4,1.8,1.1c0.4,0.6,0.5,1.3,0.5,2.1C32.7,54.8,32.3,55.9,31.4,56.9z M61.4,55c-0.4,0.5-0.9,0.8-1.6,0.8
		c-0.3,0-0.6-0.1-1-0.3c-0.3-0.2-0.6-0.4-0.7-0.7c-0.1,0.3-0.3,0.5-0.6,0.7s-0.6,0.3-0.9,0.3c-0.8,0-1.4-0.3-1.7-0.9
		c-0.3,0.6-0.8,0.9-1.6,0.9v0h0h-0.4h0v0c-0.7,0-1.2-0.3-1.6-0.9c-0.3,0.6-0.8,0.9-1.6,0.9c-0.8,0-1.3-0.3-1.6-0.9
		c-0.3,0.6-0.7,0.9-1.4,0.9c-0.5,0-0.9-0.1-1.1-0.3c0,1.3-0.3,2.4-1,3.3c-0.8,1-1.9,1.5-3.4,1.5c-1.3,0-2.3-0.4-3-1.3
		c-0.5-0.7-0.8-1.5-0.8-2.5c0-1.5,0.4-2.3,1.1-2.3c0.4,0,0.6,0.2,0.6,0.7c0,0.2,0,0.4-0.1,0.7s-0.1,0.5-0.1,0.7
		c0,0.7,0.2,1.3,0.7,1.7c0.4,0.4,1,0.6,1.7,0.6c0.9,0,1.6-0.2,2.1-0.7c0.5-0.5,0.8-1.2,0.8-2.1c0-0.3-0.1-0.7-0.3-1.2
		s-0.3-0.9-0.3-1.1c0-0.5,0.3-0.8,0.8-0.8c0.2,0,0.4,0.1,0.6,0.3c0.3,0.4,0.5,0.6,0.5,0.6c0.3,0.2,0.6,0.3,1.1,0.3
		c0.5,0,0.8-0.3,0.9-0.9c0.1-0.5,0.3-0.8,0.7-0.8c0.4,0,0.6,0.3,0.7,0.8c0.1,0.6,0.4,0.9,0.9,0.9c0.6,0,0.9-0.3,1-0.9
		c0.1-0.5,0.3-0.7,0.6-0.7c0.4,0,0.6,0.3,0.7,0.8c0.1,0.3,0.2,0.6,0.3,0.7S52.7,54,53,54h0.1c0.6,0,1-0.3,1.1-1
		c0.1-0.5,0.3-0.7,0.7-0.7c0.4,0,0.6,0.2,0.6,0.7c0.1,0.6,0.4,1,1,1c0.4,0,0.6-0.1,0.7-0.4c0-0.2,0.1-0.4,0.2-0.8
		c0.1-0.3,0.3-0.4,0.6-0.4c0.3,0,0.6,0.2,0.7,0.7c0.2,0.7,0.5,1.1,1.1,1.1c0.4,0,0.6-0.2,0.6-0.7c0-0.1,0-0.3-0.1-0.5
		s-0.1-0.4-0.1-0.5c0-0.2,0.1-0.3,0.2-0.5c0.1-0.1,0.3-0.2,0.4-0.2c0.4,0,0.7,0.2,0.8,0.6c0.1,0.3,0.2,0.7,0.2,1.1
		C61.9,54,61.7,54.6,61.4,55z M69.8,55.8c-0.6,0-1-0.2-1.3-0.6c-0.4,1-0.9,1.8-1.7,2.5c-0.6,0.6-1.5,1.1-2.6,1.5
		c-0.2,0.1-0.3,0.1-0.5,0.1c-0.2,0-0.4-0.1-0.5-0.2S63,58.9,63,58.7c0-0.4,0.2-0.7,0.7-0.9c0.9-0.4,1.6-0.8,2.1-1.2
		c0.7-0.6,1.2-1.2,1.4-1.9c0-0.1,0-0.2,0-0.3c0-0.4-0.1-0.9-0.3-1.3c0-0.1,0-0.2,0-0.3c0-0.2,0.1-0.4,0.2-0.6s0.3-0.2,0.5-0.3
		c0.3,0,0.6,0.2,0.8,0.6c0,0,0.2,0.3,0.4,0.9c0.3,0.4,0.7,0.5,1.2,0.5h0.2h0.3c0.8,0,1.2-0.3,1.2-0.8c0-0.2,0-0.4-0.1-0.7
		s-0.1-0.5-0.1-0.7c0-0.2,0.1-0.4,0.2-0.6c0.1-0.2,0.3-0.2,0.5-0.2c0.7,0,1,0.6,1,1.9c0,0.9-0.2,1.6-0.7,2.1s-1.2,0.8-2,0.8h-0.2
		H69.8L69.8,55.8z M70.5,58.4c-0.2-0.2-0.3-0.4-0.3-0.6s0.1-0.5,0.3-0.6s0.4-0.3,0.6-0.3s0.5,0.1,0.6,0.3s0.3,0.4,0.3,0.6
		s-0.1,0.5-0.3,0.6s-0.4,0.3-0.6,0.3S70.7,58.6,70.5,58.4z M72.9,60.3c-0.2,0.2-0.4,0.3-0.6,0.3s-0.5-0.1-0.6-0.3s-0.3-0.4-0.3-0.6
		c0-0.2,0.1-0.5,0.3-0.6s0.4-0.3,0.6-0.3c0.3,0,0.5,0.1,0.6,0.3s0.3,0.4,0.3,0.6S73,60.1,72.9,60.3z M74,58.4
		c-0.2,0.2-0.4,0.3-0.6,0.3s-0.5-0.1-0.6-0.3s-0.3-0.4-0.3-0.6s0.1-0.5,0.3-0.6s0.4-0.3,0.6-0.3s0.5,0.1,0.6,0.3s0.3,0.4,0.3,0.6
		S74.1,58.2,74,58.4z"/>
	<rect x="43.5" y="6.4" class="st0" width="4.8" height="4.8"/>
</g>
</svg>
