<?xml version="1.0" encoding="utf-8"?>
<!-- Generator: Adobe Illustrator 19.1.0, SVG Export Plug-In . SVG Version: 6.00 Build 0)  -->
<svg version="1.1" id="Layer_1" xmlns="http://www.w3.org/2000/svg" xmlns:xlink="http://www.w3.org/1999/xlink" x="0px" y="0px"
	 viewBox="-379 563.6 83 64.9" style="enable-background:new -379 563.6 83 64.9;" xml:space="preserve">
<style type="text/css">
	.st0{fill:#FFFFFF;}
</style>
<g>
	<path class="st0" d="M-358.7,599.3c-0.5,0-1,0.4-1,1l-0.6,6.6c0,0,0,0,0,0c0,0,0,0,0,0h3.2c0,0,0,0,0,0c0,0,0,0,0,0l-0.6-6.6
		C-357.7,599.7-358.1,599.3-358.7,599.3z"/>
	<circle class="st0" cx="-358.7" cy="596.9" r="0.9"/>
	<path class="st0" d="M-325.2,620.6c-0.2,0-0.4,0.1-0.6,0.3s-0.3,0.4-0.3,0.6c0,0.2,0.1,0.3,0.4,0.4c0.2,0.1,0.4,0.2,0.6,0.2
		c0.4,0,0.6-0.2,0.6-0.6c0-0.2-0.1-0.4-0.2-0.6C-324.9,620.6-325,620.6-325.2,620.6z"/>
	<path class="st0" d="M-332,620.5c-0.2,0-0.3,0.1-0.4,0.2s-0.2,0.2-0.2,0.4c0,0.3,0.2,0.4,0.6,0.5c0.1,0,0.4,0,0.9,0
		c0-0.3-0.1-0.5-0.2-0.7C-331.6,620.6-331.8,620.5-332,620.5z"/>
	<path class="st0" d="M-337.7,591.2c-1,0-2-0.2-3-0.6l-11.4-4.9v2.1c0,1.9,1.4,3.7,4,5.1c2.7,1.5,6.4,2.3,10.3,2.3
		c1.1,0,2.2-0.1,3.3-0.2c0.4-0.1,0.8,0.3,0.9,0.7c0.1,0.4-0.3,0.8-0.7,0.9c-1.1,0.1-2.3,0.2-3.5,0.2c-4.2,0-8.1-0.9-11.1-2.5
		c-1.3-0.7-2.4-1.6-3.2-2.5c0.3,1.7,1.7,3.2,4,4.5c2.7,1.5,6.4,2.3,10.3,2.3s7.6-0.8,10.3-2.3c2.3-1.2,3.7-2.8,4-4.5
		c-0.9,1.1-2.2,2-3.8,2.8c-0.1,0.1-0.2,0.1-0.3,0.1c-0.3,0-0.6-0.2-0.7-0.4c-0.2-0.4,0-0.9,0.4-1.1c2.9-1.4,4.6-3.4,4.6-5.4v-2.1
		l-11.4,4.9C-335.7,591-336.7,591.2-337.7,591.2z M-332,594.6c0.6-0.1,1.1-0.3,1.6-0.4c0.4-0.1,0.9,0.1,1,0.5c0.1,0.4-0.1,0.9-0.5,1
		c-0.6,0.2-1.1,0.3-1.7,0.5c-0.1,0-0.1,0-0.2,0c-0.4,0-0.7-0.2-0.8-0.6C-332.7,595.1-332.4,594.7-332,594.6z"/>
	<path class="st0" d="M-335.1,578.4c0-0.2-0.9-0.9-2.6-0.9s-2.6,0.7-2.6,0.9c0,0.2,0.9,0.9,2.6,0.9S-335.1,578.6-335.1,578.4z"/>
	<path class="st0" d="M-381.7,561v70h88v-70H-381.7z M-343,622.5c-0.4,0.5-1,0.7-1.6,0.7c-0.7,0-1.3-0.3-1.6-0.9
		c-0.3,0.6-0.7,0.9-1.4,0.9c-0.5,0-0.9-0.1-1.1-0.3c0,1.3-0.3,2.4-1,3.3c-0.8,1-1.9,1.5-3.4,1.5c-1.3,0-2.3-0.4-3-1.3
		c-0.5-0.7-0.8-1.5-0.8-2.5c0-1.5,0.4-2.3,1.1-2.3c0.4,0,0.6,0.2,0.6,0.7c0,0.2,0,0.4-0.1,0.7s-0.1,0.5-0.1,0.7
		c0,0.7,0.2,1.3,0.7,1.7c0.4,0.4,1,0.6,1.7,0.6c0.9,0,1.6-0.2,2.1-0.7c0.5-0.5,0.8-1.2,0.8-2.1c0-0.3-0.1-0.7-0.3-1.2
		s-0.3-0.9-0.3-1.1c0-0.5,0.3-0.8,0.8-0.8c0.2,0,0.4,0.1,0.6,0.3c0.3,0.4,0.5,0.6,0.5,0.6c0.3,0.2,0.6,0.3,1.1,0.3
		c0.4,0,0.6-0.1,0.7-0.4c0-0.2,0.1-0.4,0.2-0.8c0.1-0.3,0.3-0.4,0.6-0.4c0.3,0,0.6,0.2,0.6,0.7c0.1,0.7,0.5,1,1.1,1
		c0.4,0,0.6-0.2,0.6-0.7c0-0.1,0-0.3-0.1-0.5c-0.1-0.2-0.1-0.4-0.1-0.5c0-0.2,0.1-0.3,0.2-0.5c0.1-0.1,0.3-0.2,0.4-0.2
		c0.4,0,0.7,0.2,0.8,0.6c0.1,0.3,0.2,0.7,0.2,1.1C-342.4,621.5-342.6,622.1-343,622.5z M-345.8,616.1c-0.2,0.2-0.4,0.3-0.6,0.3
		s-0.5-0.1-0.6-0.3s-0.3-0.4-0.3-0.6s0.1-0.5,0.3-0.6s0.4-0.3,0.6-0.3s0.5,0.1,0.6,0.3s0.3,0.4,0.3,0.6S-345.7,615.9-345.8,616.1z
		 M-345.4,616.5c0.3,0,0.5,0.1,0.6,0.3c0.2,0.2,0.3,0.4,0.3,0.6s-0.1,0.5-0.3,0.6c-0.2,0.2-0.4,0.3-0.6,0.3s-0.5-0.1-0.6-0.3
		s-0.3-0.4-0.3-0.6c0-0.2,0.1-0.5,0.3-0.6C-345.8,616.6-345.6,616.5-345.4,616.5z M-346.9,616.7c0.2,0.2,0.3,0.4,0.3,0.6
		c0,0.3-0.1,0.5-0.3,0.6s-0.4,0.3-0.6,0.3s-0.5-0.1-0.6-0.3c-0.2-0.2-0.3-0.4-0.3-0.6s0.1-0.5,0.3-0.6c0.2-0.2,0.4-0.3,0.6-0.3
		C-347.3,616.5-347.1,616.6-346.9,616.7z M-337.2,624.1c-0.8,0.9-1.9,1.6-3.3,2c-0.1,0-0.2,0-0.4,0c-0.5,0-0.8-0.2-0.8-0.7
		c0-0.4,0.2-0.7,0.7-0.9c1.2-0.5,2-1.1,2.5-1.5c0.5-0.6,0.8-1.3,0.8-2.2c0-0.1,0-0.3,0-0.5s0-0.4,0-0.5c0-0.9,0.3-1.3,0.8-1.3
		c0.6,0,0.9,0.4,0.9,1.3c0,0.2,0,0.4,0,0.6C-336,621.9-336.4,623.1-337.2,624.1z M-338.3,616.4c0-0.2,0.1-0.5,0.3-0.6
		c0.2-0.2,0.4-0.3,0.6-0.3c0.3,0,0.5,0.1,0.6,0.3c0.2,0.2,0.3,0.4,0.3,0.6s-0.1,0.5-0.3,0.6c-0.2,0.2-0.4,0.3-0.6,0.3
		s-0.5-0.1-0.6-0.3S-338.3,616.6-338.3,616.4z M-323.8,622.8c-0.3,0.4-0.8,0.7-1.3,0.7c-0.7,0-1.3-0.3-1.8-0.8
		c-0.4,0.4-0.9,0.6-1.5,0.6h0h-0.4h-0.8c-0.5,1.8-1.9,3.1-4.1,4c-0.1,0.1-0.3,0.1-0.4,0.1c-0.2,0-0.4-0.1-0.5-0.2s-0.2-0.3-0.2-0.5
		c0-0.4,0.2-0.6,0.6-0.8c1.6-0.7,2.7-1.6,3.1-2.5c-0.8,0-1.5-0.1-1.8-0.3c-0.5-0.3-0.8-0.8-0.8-1.5c0-0.6,0.2-1.2,0.5-1.7
		c0.4-0.6,0.9-0.9,1.4-0.9c0.6,0,1.2,0.3,1.6,0.8c0.4,0.5,0.6,1.1,0.7,1.8h0.7h0.3c0.3,0,0.5,0,0.7-0.1s0.3-0.3,0.5-0.5
		c0.4-0.6,0.6-0.9,0.7-1c0.5-0.5,1-0.8,1.5-0.8c0.6,0,1.1,0.3,1.4,0.8c0.3,0.4,0.4,1,0.4,1.6C-323.4,621.9-323.5,622.4-323.8,622.8z
		 M-318.4,622.7c0,0.6-0.2,0.9-0.7,0.9c-0.4,0-0.7-0.3-0.7-0.8l-0.3-7.8c0-0.3,0-0.6,0.2-0.9c0.2-0.3,0.4-0.5,0.7-0.5
		c0.5,0,0.8,0.4,0.8,1.2V622.7z M-317.4,612.3c-0.4,0.3-0.8,0.4-1.3,0.4c-0.2,0-0.5,0-1,0s-0.8,0-1,0c-0.4,0-0.7,0.1-0.9,0.2
		c-0.1,0.1-0.2,0.2-0.3,0.4c-0.1,0.2-0.2,0.2-0.4,0.2c-0.2,0-0.3-0.1-0.3-0.3c0-0.5,0.2-0.9,0.5-1.2s0.7-0.5,1.2-0.5
		c0.2,0,0.6,0,1,0.1s0.8,0.1,1,0.1c0.3,0,0.7-0.1,1-0.4s0.6-0.4,0.6-0.4c0.2,0,0.3,0.1,0.3,0.3C-316.8,611.7-317,612-317.4,612.3z
		 M-313.4,581.4l-8.4,3.6c0,0,0,0.1,0,0.1v6c0,2.5-1.7,4.8-4.8,6.5c-3,1.6-6.9,2.5-11.1,2.5c-4.2,0-8.1-0.9-11.1-2.5
		c-3.1-1.7-4.8-4-4.8-6.5v-6c0,0,0-0.1,0-0.1l-4.3-1.8v11.3c1,0.3,1.7,1.3,1.7,2.3c0,0.6-0.2,1.2-0.6,1.6c0.4,0.4,0.7,1,0.8,1.6
		l0.6,6.6c0,0.5-0.1,0.9-0.4,1.2c-0.3,0.3-0.7,0.5-1.2,0.5h-3.2c-0.5,0-0.9-0.2-1.2-0.5c-0.3-0.3-0.5-0.8-0.4-1.2l0.6-6.6
		c0.1-0.6,0.3-1.2,0.8-1.6c-0.4-0.4-0.6-1-0.6-1.6c0-1.1,0.7-2,1.7-2.3v-11.9c0,0,0-0.1,0-0.1l-2.5-1.1c-1.2-0.5-2-1.7-2-3
		c0-1.3,0.8-2.5,2-3l21.3-9.1c1.9-0.8,4-0.8,5.9,0l21.3,9.1c1.2,0.5,2,1.7,2,3C-311.4,579.8-312.2,580.9-313.4,581.4z"/>
	<path class="st0" d="M-314,576.8l-21.3-9.1c-0.7-0.3-1.5-0.5-2.3-0.5c-0.8,0-1.6,0.2-2.3,0.5l-21.3,9.1c-0.7,0.3-1,0.9-1,1.6
		c0,0.7,0.4,1.3,1,1.6l2.4,1c0,0,0.1,0,0.1,0l17-3c0.3-1.2,2-2.1,4.1-2.1c2.4,0,4.1,1.1,4.1,2.5c0,1.4-1.8,2.5-4.1,2.5
		c-1.7,0-3-0.5-3.7-1.3l-14.9,2.6l16.3,7c1.5,0.6,3.2,0.6,4.7,0l21.3-9.1c0.7-0.3,1-0.9,1-1.6C-313,577.7-313.4,577.1-314,576.8z"/>
</g>
</svg>
