<?xml version="1.0" encoding="utf-8"?>
<!-- Generator: Adobe Illustrator 19.1.0, SVG Export Plug-In . SVG Version: 6.00 Build 0)  -->
<svg version="1.1" id="Layer_1" xmlns="http://www.w3.org/2000/svg" xmlns:xlink="http://www.w3.org/1999/xlink" x="0px" y="0px"
	 viewBox="-379 563.5 83 65" style="enable-background:new -379 563.5 83 65;" xml:space="preserve">
<style type="text/css">
	.st0{fill:#FFFFFF;}
</style>
<g>
	<path class="st0" d="M-349.2,613.6c0,0.1,0,0.2,0,0.2c0,0.4-0.2,0.8-0.5,1.1c0.1,0.1,0.2,0.2,0.4,0.3c0.2,0.1,0.4,0.1,0.5,0.1
		c0.3,0,0.5-0.2,0.5-0.5c0-0.1,0-0.1,0-0.2C-348.3,614.4-348.6,614-349.2,613.6z"/>
	<path class="st0" d="M-351,612.7c-0.2,0-0.4,0.1-0.6,0.3s-0.3,0.4-0.3,0.6s0.1,0.4,0.2,0.5s0.3,0.2,0.5,0.2c0.5,0,0.8-0.3,0.8-0.8
		c0-0.2-0.1-0.4-0.2-0.6C-350.7,612.8-350.8,612.7-351,612.7z"/>
	<path class="st0" d="M-383.8,562v68h92.5v-68H-383.8z M-336.1,570.8l2-1.9c2.8-2.7,7-2.6,9.9,0.4c1.4,1.4,2.1,3.2,2.1,5.1
		c0,1.9-0.8,3.8-2.1,5.1l-6.2,6.1c-1.9,1.9-3.9,2.8-5.8,2.8c-1.5,0-3-0.6-4.3-1.9c-0.8-0.7-0.8-2,0-2.7c0.7-0.8,2-0.8,2.7,0
		c0.6,0.6,1.9,1.9,4.7-0.9l6.2-6.1c0.7-0.6,1-1.5,1-2.4c0-0.9-0.4-1.8-1-2.4c-1.2-1.2-3.1-1.8-4.5-0.4l-2,1.9c-0.8,0.7-2,0.7-2.7,0
		C-336.8,572.7-336.8,571.5-336.1,570.8z M-324.7,610.5c0,0.3-0.1,0.5-0.3,0.6c-0.2,0.2-0.4,0.3-0.6,0.3c-0.2,0-0.5-0.1-0.6-0.3
		c-0.2-0.2-0.3-0.4-0.3-0.6c0-0.3,0.1-0.5,0.3-0.6s0.4-0.3,0.6-0.3s0.5,0.1,0.6,0.3C-324.8,610-324.7,610.2-324.7,610.5z
		 M-347.3,616.2c-0.3,0.4-0.7,0.6-1.3,0.6c-0.6,0-1.3-0.3-2.2-0.8c-0.4,0.3-1.1,0.4-2,0.4h-0.9h-0.4h-0.1c-1,0-1.7-0.4-2.1-1.1
		c-0.2-0.4-0.3-1.3-0.4-2.5l-0.2-5c0-0.3,0-0.5,0.2-0.7c0.1-0.2,0.3-0.3,0.6-0.3c0.5,0,0.8,0.3,0.8,1v5.3c0,1,0.4,1.5,1.2,1.5h0.4h1
		c-0.2-0.1-0.3-0.4-0.3-0.8c0-0.7,0.4-1.3,1.1-2l-0.3-0.3c-0.2-0.2-0.3-0.4-0.3-0.6c0-0.3,0.1-0.5,0.3-0.7c0.2-0.2,0.4-0.3,0.6-0.3
		c0.2,0,0.3,0,0.5,0.1c2.8,1.7,4.2,3.2,4.2,4.6C-346.9,615.3-347.1,615.8-347.3,616.2z M-350.8,595.7c-1.4-1.4-2.1-3.2-2.1-5.1
		s0.8-3.8,2.1-5.1l5.8-5.7c3.6-3.6,7.7-4.1,10.5-1.3c0.8,0.7,0.8,2,0,2.7c-0.7,0.8-2,0.8-2.7,0c-1.6-1.6-3.9,0.1-5.1,1.3l-5.8,5.7
		c-0.7,0.6-1,1.5-1,2.4s0.4,1.8,1,2.4c1.4,1.3,3.6,1.3,4.9,0l1.6-1.6c0.8-0.7,2-0.7,2.7,0c0.7,0.8,0.7,2,0,2.7l-1.6,1.6
		c-1.4,1.4-3.3,2.1-5.2,2.1C-347.5,597.8-349.4,597.1-350.8,595.7z M-321.6,619.5c-0.2,0.2-0.4,0.3-0.6,0.3s-0.5-0.1-0.6-0.3
		s-0.3-0.4-0.3-0.6c0-0.2,0.1-0.5,0.3-0.6c0.2-0.2,0.4-0.3,0.6-0.3c0.3,0,0.5,0.1,0.6,0.3c0.2,0.2,0.3,0.4,0.3,0.6
		S-321.4,619.4-321.6,619.5z M-319.4,619.5c-0.2,0.2-0.4,0.3-0.6,0.3s-0.5-0.1-0.6-0.3s-0.3-0.4-0.3-0.6s0.1-0.5,0.3-0.6
		s0.4-0.3,0.6-0.3s0.5,0.1,0.6,0.3s0.3,0.4,0.3,0.6S-319.3,619.4-319.4,619.5z M-316,613.2c0,1-0.1,1.8-0.3,2.2
		c-0.3,0.7-1,1.1-1.9,1.1h-0.5h-0.4h-0.1c-1,0-1.7-0.3-1.9-1c-0.4,0.6-1,1-1.9,1h-0.1h-0.5h-0.1c-1,0-1.7-0.3-1.9-1
		c-0.4,0.6-1,1-1.9,1h-0.1h-0.5h-0.1c-1.3,0-2.4-0.6-3.2-1.8c-0.2,1-1.1,1.6-2.7,2c-0.9,0.2-2,0.3-3.6,0.3c-3.1,0-4.6-0.9-4.6-2.7
		c0-0.5,0.1-0.9,0.2-1.4c0.2-0.6,0.5-0.9,0.8-0.9c0.4,0,0.6,0.2,0.6,0.6c0,0.1,0,0.3-0.1,0.6s-0.1,0.4-0.1,0.6c0,0.4,0.2,0.8,0.5,1
		c0.5,0.3,1.4,0.5,2.8,0.5h0.3c1.2,0,2.2-0.1,3.1-0.2c1-0.2,1.5-0.5,1.5-0.9c0-0.3-0.4-0.8-1.3-1.5c-1-0.8-1.6-1.4-1.7-1.7
		c-0.1-0.2-0.2-0.4-0.2-0.7c0-0.6,0.2-1.1,0.7-1.3c1.1-0.7,2.7-1.2,4.8-1.7c0.1,0,0.3,0,0.4,0c0.2,0,0.4,0.1,0.6,0.2
		c0.2,0.1,0.3,0.3,0.3,0.6c0,0.4-0.2,0.6-0.7,0.7c-1.7,0.4-3.1,0.8-4.2,1.3c-0.1,0-0.2,0.1-0.2,0.3c0,0.1,0.1,0.2,0.2,0.3
		c0.8,0.6,1.6,1.3,2.3,2.1c0.3,0.3,0.7,0.7,1.5,1.5c0.6,0.6,1.3,0.9,2,0.9h0.2h0.5h0.1c0.8,0,1.2-0.3,1.3-1c0.1-0.5,0.3-0.7,0.7-0.7
		c0.4,0,0.6,0.2,0.6,0.7c0.1,0.7,0.5,1,1.2,1h0.1h0.5h0.1c0.8,0,1.2-0.3,1.3-1c0.1-0.5,0.3-0.7,0.7-0.7c0.4,0,0.6,0.2,0.6,0.7
		c0.1,0.7,0.5,1,1.2,1h0.1h0.4h0.1c0.5,0,0.8-0.1,1-0.3c0.1-0.2,0.2-0.5,0.2-1l-0.1-5.5c0-0.3,0.1-0.5,0.2-0.7
		c0.2-0.2,0.4-0.3,0.6-0.3c0.5,0,0.8,0.3,0.8,1V613.2z"/>
</g>
</svg>
