<?xml version="1.0" encoding="utf-8"?>
<!-- Generator: Adobe Illustrator 19.1.0, SVG Export Plug-In . SVG Version: 6.00 Build 0)  -->
<svg version="1.1" id="Layer_1" xmlns="http://www.w3.org/2000/svg" xmlns:xlink="http://www.w3.org/1999/xlink" x="0px" y="0px"
	 viewBox="-6.5 2.5 83 65" style="enable-background:new -6.5 2.5 83 65;" xml:space="preserve">
<style type="text/css">
	.st0{fill:#FFFFFF;}
</style>
<g>
	<rect x="28.1" y="20.7" class="st0" width="6.4" height="6.4"/>
	<path class="st0" d="M41.9,20.7h-6.4v6.4h6.4V20.7z M41.3,25.7c0.2,0.2,0.2,0.5,0,0.8c-0.1,0.1-0.2,0.2-0.4,0.2s-0.3-0.1-0.4-0.2
		l-1.8-1.8L37,26.5c-0.1,0.1-0.2,0.2-0.4,0.2c-0.1,0-0.3-0.1-0.4-0.2c-0.2-0.2-0.2-0.5,0-0.8l1.8-1.8l-1.8-1.8
		c-0.2-0.2-0.2-0.5,0-0.8s0.5-0.2,0.8,0l1.8,1.8l1.8-1.8c0.2-0.2,0.5-0.2,0.8,0s0.2,0.5,0,0.8l-1.8,1.8L41.3,25.7z"/>
	<rect x="35.5" y="28.2" class="st0" width="6.4" height="6.4"/>
	<rect x="28.1" y="28.2" class="st0" width="6.4" height="6.4"/>
	<polygon class="st0" points="27,13.3 20.6,13.3 20.6,13.8 20.6,19.7 27,19.7 	"/>
	<rect x="20.6" y="20.7" class="st0" width="6.4" height="6.4"/>
	<rect x="20.6" y="28.2" class="st0" width="6.4" height="6.4"/>
	<rect x="28.1" y="13.3" class="st0" width="6.4" height="6.4"/>
	<path class="st0" d="M50.5,52c-0.2,0-0.4,0.1-0.6,0.3s-0.3,0.4-0.3,0.6c0,0.2,0.1,0.3,0.4,0.4c0.2,0.1,0.4,0.2,0.6,0.2
		c0.4,0,0.6-0.2,0.6-0.6c0-0.2-0.1-0.4-0.2-0.6C50.9,52.1,50.7,52,50.5,52z"/>
	<polygon class="st0" points="49.4,13.8 49.4,13.3 43,13.3 43,19.7 49.4,19.7 	"/>
	<path class="st0" d="M-9.3-0.7v72H79v-72H-9.3z M36.6,5.2c1.5,0,2.7,1.2,2.7,2.7c0,1.5-1.2,2.7-2.7,2.7c-0.3,0-0.5-0.2-0.5-0.5
		s0.2-0.5,0.5-0.5c0.9,0,1.6-0.7,1.6-1.6c0-0.9-0.7-1.6-1.6-1.6c-0.3,0-0.5-0.2-0.5-0.5C36.1,5.5,36.3,5.2,36.6,5.2z M33.4,5.2
		c1.5,0,2.7,1.2,2.7,2.7c0,1.5-1.2,2.7-2.7,2.7c-0.3,0-0.5-0.2-0.5-0.5s0.2-0.5,0.5-0.5c0.9,0,1.6-0.7,1.6-1.6
		c0-0.9-0.7-1.6-1.6-1.6c-0.3,0-0.5-0.2-0.5-0.5C32.9,5.5,33.1,5.2,33.4,5.2z M19.5,28.2v-1.1v-6.4v-1.1v-5.9v-1.6V7.4h8.1
		c0.2-1.2,1.3-2.1,2.6-2.1c1.5,0,2.7,1.2,2.7,2.7c0,1.5-1.2,2.7-2.7,2.7c-0.3,0-0.5-0.2-0.5-0.5s0.2-0.5,0.5-0.5
		c0.9,0,1.6-0.7,1.6-1.6c0-0.9-0.7-1.6-1.6-1.6c-0.7,0-1.3,0.4-1.5,1.1h1c0.3,0,0.5,0.2,0.5,0.5c0,0.3-0.2,0.5-0.5,0.5h-1.6h-7.5
		v3.7H27h1.1h6.4h1.1h6.4H43h6.4V8.4h-7c-0.2,1.2-1.3,2.1-2.6,2.1c-0.3,0-0.5-0.2-0.5-0.5s0.2-0.5,0.5-0.5c0.9,0,1.6-0.7,1.6-1.6
		c0-0.9-0.7-1.6-1.6-1.6c-0.3,0-0.5-0.2-0.5-0.5c0-0.3,0.2-0.5,0.5-0.5c1.3,0,2.4,0.9,2.6,2.1h8.1v4.8v1.6v5.9v1.1v6.4v1.1v7.5H43
		h-1.1h-6.4h-1.1h-6.4H27h-7.5V28.2z M40,46.9c-0.1-0.2-0.2-0.4-0.2-0.6c0-0.2,0.1-0.4,0.2-0.6s0.3-0.2,0.6-0.2
		c0.7,0,1.2,0.8,1.6,2.3c0.3,1.1,0.4,2.1,0.4,3.1c0,0.6,0,1.1-0.1,1.6c-0.1,0.4-0.3,0.7-0.8,0.7c-0.4,0-0.6-0.2-0.6-0.6
		c0-0.1,0-0.3,0-0.6s0-0.5,0-0.6C41.2,49.7,40.8,48.2,40,46.9z M37.7,46c0,0.2-0.1,0.5-0.3,0.6s-0.4,0.3-0.6,0.3
		c-0.3,0-0.5-0.1-0.6-0.3s-0.3-0.4-0.3-0.6s0.1-0.5,0.3-0.6s0.4-0.3,0.6-0.3s0.5,0.1,0.6,0.3S37.7,45.8,37.7,46z M35.6,46
		c0,0.2-0.1,0.5-0.3,0.6s-0.4,0.3-0.6,0.3c-0.3,0-0.5-0.1-0.6-0.3s-0.3-0.4-0.3-0.6s0.1-0.5,0.3-0.6s0.4-0.3,0.6-0.3
		s0.5,0.1,0.6,0.3S35.6,45.8,35.6,46z M25,48.5c0,0.3-0.1,0.5-0.3,0.6s-0.4,0.3-0.6,0.3s-0.5-0.1-0.6-0.3s-0.3-0.4-0.3-0.6
		s0.1-0.5,0.3-0.6s0.4-0.3,0.6-0.3s0.5,0.1,0.6,0.3S25,48.2,25,48.5z M22.9,48.5c0,0.3-0.1,0.5-0.3,0.6s-0.4,0.3-0.6,0.3
		s-0.5-0.1-0.6-0.3s-0.3-0.4-0.3-0.6c0-0.2,0.1-0.5,0.3-0.6s0.4-0.3,0.6-0.3c0.3,0,0.5,0.1,0.6,0.3S22.9,48.2,22.9,48.5z M27.3,54.6
		c-1.1,0.4-2.8,0.6-5,0.6c-3.1,0-4.6-0.9-4.6-2.7c0-0.5,0.1-0.9,0.2-1.4c0.2-0.6,0.5-0.9,0.8-0.9c0.4,0,0.6,0.2,0.6,0.6
		c0,0.1,0,0.3-0.1,0.6s-0.1,0.4-0.1,0.6c0,0.4,0.2,0.8,0.5,1c0.5,0.3,1.4,0.5,2.8,0.5h1c0.9,0,1.8-0.1,2.5-0.2c1.3-0.2,2-0.5,2-1
		c0-0.2-0.1-0.5-0.3-0.9s-0.3-0.7-0.3-0.8c0-0.6,0.3-0.9,0.8-0.9c0.4,0,0.8,0.3,1,1c0.2,0.5,0.3,1,0.3,1.5
		C29.4,53.3,28.7,54.1,27.3,54.6z M34.3,54.7h-0.5h-0.4h-0.1c-1,0-1.7-0.4-2.1-1.1c-0.2-0.4-0.3-1.3-0.4-2.5l-0.2-5
		c0-0.3,0-0.5,0.2-0.7c0.1-0.2,0.3-0.3,0.6-0.3c0.5,0,0.8,0.3,0.8,1v5.3c0,1,0.4,1.5,1.2,1.5h0.4h0.7c1.7,0,2.5-0.4,2.4-1.1
		c-0.1,0.1-0.3,0.2-0.6,0.3s-0.5,0.2-0.7,0.2c-0.6,0-1-0.2-1.3-0.6c-0.2-0.3-0.3-0.6-0.3-1c0-0.6,0.1-1.2,0.4-1.7
		c0.4-0.7,0.9-1,1.5-1c0.8,0,1.4,0.5,1.8,1.4c0.3,0.7,0.4,1.5,0.4,2.4C38.2,53.7,36.9,54.7,34.3,54.7z M51.9,54.3
		c-0.3,0.4-0.8,0.7-1.3,0.7c-0.7,0-1.3-0.3-1.8-0.8c-0.4,0.4-0.9,0.6-1.5,0.6h0h-0.4h-0.1c-0.5,0-0.9-0.1-1.2-0.4s-0.6-0.6-0.7-1.1
		c-0.6,1.2-1.9,1.8-4,1.8c-0.9,0-1.3-0.3-1.3-0.9c0-0.4,0.3-0.6,0.8-0.7c0.3,0,1-0.2,1.9-0.3c0.7-0.1,1.1-0.4,1.4-1
		c0.2-0.4,0.3-1,0.3-1.8c0-0.3,0-0.6-0.1-1.1l-0.3-3.1c0-0.3,0-0.6,0.1-0.8c0.1-0.3,0.4-0.4,0.6-0.4c0.5,0,0.8,0.4,0.8,1.1l0.2,3.5
		c0.1,1.1,0.2,1.9,0.3,2.3c0.2,0.6,0.6,0.9,1.1,0.9h0.2c0.3,0,0.5,0,0.7-0.1s0.3-0.3,0.5-0.5c0.4-0.6,0.6-0.9,0.7-1
		c0.5-0.5,1-0.8,1.5-0.8c0.6,0,1.1,0.3,1.4,0.8c0.3,0.4,0.4,1,0.4,1.6C52.4,53.4,52.2,53.9,51.9,54.3z"/>
	<rect x="43" y="28.2" class="st0" width="6.4" height="6.4"/>
	<rect x="43" y="20.7" class="st0" width="6.4" height="6.4"/>
	<rect x="35.5" y="13.3" class="st0" width="6.4" height="6.4"/>
	<path class="st0" d="M35.9,49.5c-0.2,0-0.3,0.1-0.4,0.2s-0.2,0.3-0.2,0.5c0,0.4,0.2,0.6,0.6,0.6c0.5,0,0.8-0.2,0.8-0.5
		c0-0.2-0.1-0.4-0.2-0.6S36.1,49.5,35.9,49.5z"/>
</g>
</svg>
